<svg version="1.1" id="Layer_1" xmlns="http://www.w3.org/2000/svg" xmlns:xlink="http://www.w3.org/1999/xlink" x="0px" y="0px"
	 width="100%" viewBox="0 0 1024 1024" enable-background="new 0 0 1024 1024" xml:space="preserve">
<path fill="#000000" opacity="1.000000" stroke="none" 
	d="
M468.979980,458.031281 
	C428.648346,489.038544 367.938171,471.200226 353.404694,424.378357 
	C343.687561,393.072998 358.373047,360.423035 389.093842,345.031342 
	C426.126251,326.477478 471.702698,341.143127 488.940857,377.598755 
	C501.420410,403.990662 495.689362,437.532959 468.979980,458.031281 
M388.698181,433.789246 
	C401.620850,446.811218 417.270233,451.469696 434.843781,446.927399 
	C452.210022,442.438690 463.512970,431.008148 466.862549,413.030487 
	C470.013855,396.116669 464.144836,382.272095 450.800293,371.607208 
	C433.402771,357.703094 406.276245,359.357513 390.475159,375.172760 
	C374.843506,390.818512 373.884308,415.553802 388.698181,433.789246 
z"/>
<path fill="#000000" opacity="1.000000" stroke="none" 
	d="
M802.286255,467.466034 
	C770.820007,480.327454 735.815857,472.134216 715.229248,447.322601 
	C690.678650,417.733459 695.914429,374.763580 726.847473,351.971832 
	C759.531555,327.889893 804.263733,333.243011 829.997620,364.572968 
	C852.372253,391.813141 850.831665,439.005463 810.636597,463.237488 
	C808.080261,464.778564 805.309509,465.964081 802.286255,467.466034 
M728.337158,415.104614 
	C729.533630,420.896423 731.714783,426.284088 735.497925,430.855011 
	C747.070862,444.838348 761.914551,450.156952 779.867676,447.875397 
	C803.642212,444.853973 821.021667,421.021881 816.236877,397.568817 
	C811.190186,372.832642 788.004944,358.270996 761.687744,363.308990 
	C738.329285,367.780579 723.804077,389.899689 728.337158,415.104614 
z"/>
<path fill="#000000" opacity="1.000000" stroke="none" 
	d="
M186.771790,378.984314 
	C198.248505,354.120148 218.634415,341.803070 244.248138,338.008514 
	C269.456421,334.273987 292.043762,341.450165 311.407379,358.209900 
	C313.145386,359.714233 315.101746,361.096710 316.094147,363.998840 
	C310.711273,368.862396 305.189972,373.869141 299.646484,378.851257 
	C297.222473,381.029816 295.734070,378.917847 294.172119,377.533264 
	C285.636047,369.966309 275.912994,364.876129 264.616150,362.757507 
	C242.031555,358.522003 219.341553,370.210754 211.783798,390.129150 
	C202.022766,415.854187 218.778946,443.802155 245.986771,447.845825 
	C263.639252,450.469391 278.910797,446.105927 292.312286,434.453308 
	C297.524048,429.921661 297.654633,430.057159 302.620209,434.919586 
	C306.886536,439.097290 311.135071,443.293243 315.471924,447.560272 
	C313.333038,451.637207 309.758118,453.604767 306.716431,456.036926 
	C280.972870,476.621338 242.162918,479.353149 213.710373,462.664124 
	C185.568787,446.157532 174.235214,411.275085 186.771790,378.984314 
z"/>
<path fill="#000000" opacity="1.000000" stroke="none" 
	d="
M596.803101,337.641357 
	C622.416748,335.359924 644.118347,343.164337 662.716370,360.072571 
	C665.175659,362.308380 665.615051,364.086304 662.674255,366.457642 
	C658.402832,369.901917 654.299744,373.591766 650.419800,377.471771 
	C647.837280,380.054413 645.989868,380.003784 643.327087,377.547607 
	C635.077209,369.937622 625.424927,364.995087 614.333801,362.798859 
	C590.172546,358.014526 566.169434,371.486298 559.980530,393.449585 
	C552.774719,419.021545 569.374023,443.974091 595.662781,447.901398 
	C613.790833,450.609589 629.262573,445.639130 642.588745,433.522675 
	C645.816589,430.587860 647.926270,430.647705 650.807861,433.793549 
	C654.514282,437.839935 658.576294,441.569885 662.600464,445.312073 
	C664.606567,447.177673 664.785522,448.449860 662.644958,450.556366 
	C633.703064,479.037994 583.935181,481.624298 553.469055,455.688568 
	C536.097473,440.900238 529.703430,421.530670 531.324097,398.961609 
	C534.204041,358.857452 569.992737,339.875641 596.803101,337.641357 
z"/>
<path fill="#000000" opacity="1.000000" stroke="none" 
	d="
M525.754761,553.982239 
	C530.962097,556.519897 531.960327,561.387512 532.765991,565.840576 
	C533.699707,571.001282 536.248169,572.414185 541.035400,571.845642 
	C544.655029,571.415833 548.286438,571.338135 551.345886,568.918884 
	C550.744446,565.885742 548.250793,564.436890 546.777893,562.294189 
	C543.313782,557.254883 542.769836,552.299011 545.426453,548.304138 
	C548.180359,544.162720 554.187439,542.053101 559.650513,543.425476 
	C564.257812,544.582764 568.430481,546.643677 571.674316,550.192322 
	C577.369873,556.422913 576.835144,563.009766 570.310669,568.337585 
	C569.177734,569.262695 568.026306,570.165222 566.906738,571.059570 
	C568.321350,575.147888 570.259399,576.178101 574.068604,573.921326 
	C578.625549,571.221436 581.138672,568.295288 580.449768,562.368835 
	C579.582886,554.911865 584.049622,549.336304 589.919678,548.717834 
	C594.981567,548.184570 598.010620,550.786255 600.151855,555.068359 
	C602.148193,559.060669 601.520935,562.444214 598.355896,565.468872 
	C596.099670,567.625000 593.846375,569.784180 591.470825,572.057861 
	C593.998901,575.117249 596.988953,574.831238 599.941101,574.437683 
	C608.211243,573.335327 615.524170,569.949219 622.389587,565.282776 
	C626.067871,562.782593 627.598267,559.664673 627.725952,555.265076 
	C628.168152,540.029724 631.821838,525.663086 639.865051,512.538513 
	C642.173279,508.772186 644.868652,505.455139 648.660522,503.160919 
	C654.668274,499.525909 661.342529,503.082031 661.266052,510.138733 
	C661.067993,528.430420 654.333313,544.175842 642.048523,557.625916 
	C641.598999,558.118042 641.133728,558.595764 640.682983,559.086792 
	C635.623840,564.598999 635.208130,566.624207 638.309326,570.635315 
	C641.963623,575.361755 649.222412,577.033203 654.066833,574.442322 
	C656.884399,572.935364 657.123535,570.228088 657.603271,567.661377 
	C658.951477,560.447754 662.366272,554.532166 668.411438,550.316895 
	C674.186096,546.290283 678.360657,547.785095 680.524841,554.548218 
	C681.999146,559.155518 681.546570,563.697876 680.075745,568.265503 
	C678.403931,573.457092 679.561218,575.321350 684.988892,576.105103 
	C689.823303,576.803284 694.281006,575.576355 697.992493,572.336914 
	C700.202087,570.408386 702.392700,570.233276 704.848572,571.620605 
	C706.438171,572.518677 707.232849,573.880554 707.252563,575.704590 
	C707.275024,577.776733 705.860229,578.629395 704.198364,579.137634 
	C694.835327,582.001160 685.444275,583.959656 675.935669,579.686096 
	C675.333008,579.415283 674.439636,578.846985 674.104248,579.065552 
	C667.799011,583.175293 660.842224,579.074829 654.264099,580.781799 
	C643.968079,583.453491 637.603638,580.502258 629.394226,570.228394 
	C626.601685,570.750977 624.378418,572.569458 621.965942,573.950989 
	C610.714478,580.394470 599.100647,583.028381 586.686707,577.424805 
	C584.600586,576.483215 583.030457,577.113403 581.152771,578.216553 
	C574.777954,581.961792 571.277588,586.414490 570.847778,594.726257 
	C570.277649,605.751831 565.344421,615.942810 557.922119,624.481567 
	C554.801575,628.071533 550.873962,630.247803 545.942444,628.280518 
	C541.297668,626.427551 540.682007,622.433350 540.614014,617.987305 
	C540.514771,611.499146 542.640320,605.843994 546.538025,600.869629 
	C551.056946,595.102295 555.777283,589.487732 560.550415,583.927185 
	C562.491150,581.666321 563.512939,579.515198 561.668335,576.780823 
	C559.843079,574.075134 557.420166,574.722473 554.977295,575.607300 
	C549.762756,577.495972 544.434875,578.575928 538.841553,578.421082 
	C530.455872,578.189026 526.017090,574.443359 524.472351,566.165100 
	C524.214661,564.784302 524.472839,563.110107 522.703186,561.977417 
	C520.034851,564.125793 519.024292,567.345825 517.504211,570.207581 
	C515.390076,574.187744 512.927185,577.319397 507.698273,575.130981 
	C506.166107,574.489746 504.797638,575.394897 503.413513,575.953247 
	C498.934845,577.760132 494.480835,579.636353 489.952087,581.309326 
	C479.675873,585.105591 476.374573,584.251160 469.485992,576.254395 
	C467.802704,575.866089 466.728577,577.140808 465.454102,577.825012 
	C459.136841,581.216675 452.834442,584.656128 445.664276,585.936279 
	C434.187866,587.985168 427.232391,580.740234 429.634796,569.470215 
	C431.933411,558.687195 437.148895,549.206116 442.690338,539.899841 
	C448.417236,530.282166 455.710022,521.780518 462.625732,513.021301 
	C464.615112,510.501678 467.153595,508.624451 470.034729,507.197144 
	C482.118469,501.210724 492.482239,507.138184 493.235565,520.553833 
	C493.459473,524.540894 493.468079,528.543640 492.382477,532.464783 
	C489.069336,544.431702 487.285919,556.958801 479.413666,567.240417 
	C478.628510,568.265808 478.158081,569.604309 477.798248,570.870361 
	C476.436981,575.660095 478.688019,578.117310 483.455963,576.705872 
	C494.505920,573.434570 504.395966,568.207397 511.982513,559.181213 
	C515.430542,555.078918 519.447144,551.890198 525.754761,553.982239 
M475.383362,512.674866 
	C469.321686,517.690735 464.068817,523.500671 459.265991,529.682983 
	C450.342529,541.169495 442.138611,553.149841 438.689301,567.553040 
	C437.782227,571.340698 434.904022,576.215759 438.704437,579.278931 
	C442.073578,581.994446 446.387970,578.924805 449.961426,577.537537 
	C457.269470,574.700317 465.491760,571.747986 468.807800,564.479126 
	C471.877625,557.749939 476.428528,552.089050 479.555908,545.546631 
	C483.796021,536.676453 485.860870,527.363586 484.726196,517.486816 
	C484.020660,511.345642 482.109131,510.220734 475.383362,512.674866 
M643.884949,522.385986 
	C638.153748,533.511963 634.679382,546.740601 636.041687,552.249390 
	C645.202026,543.593750 654.601562,518.961365 651.636169,511.135590 
	C648.554993,514.292053 646.269592,517.925049 643.884949,522.385986 
M556.037598,550.275879 
	C550.237183,553.246582 550.113220,555.990051 555.493469,562.318970 
	C558.716125,566.109802 560.832886,566.335876 564.166443,563.245422 
	C567.502747,560.152405 567.812378,556.187256 564.890259,553.202881 
	C562.682129,550.947693 559.987427,549.882080 556.037598,550.275879 
M552.588501,607.099915 
	C550.743896,611.150513 548.069397,615.025940 549.349731,620.159912 
	C556.096436,616.352173 563.248962,601.246216 561.860474,594.422058 
	C558.469299,598.181335 555.337769,602.039795 552.588501,607.099915 
M665.220215,571.790894 
	C666.001526,573.986023 667.485046,573.904236 669.131836,572.911072 
	C673.317932,570.386292 673.830566,562.488770 670.074646,558.855896 
	C666.279663,562.374207 665.418396,564.487915 665.220215,571.790894 
M591.358398,560.731384 
	C592.015503,559.488831 593.325562,558.292847 591.401184,556.656860 
	C587.999329,557.538818 588.135132,559.904236 588.236511,563.618896 
	C589.775208,562.257019 590.369751,561.730835 591.358398,560.731384 
z"/>
<path fill="#000000" opacity="1.000000" stroke="none" 
	d="
M353.871643,552.822205 
	C355.243591,550.317017 356.226654,547.989380 357.600098,545.921021 
	C359.155487,543.578674 361.386047,541.723145 364.286346,543.504150 
	C367.089783,545.225708 367.694122,547.847656 365.794464,550.811646 
	C364.717316,552.492249 363.602631,554.181946 362.804413,555.999146 
	C361.966736,557.906067 361.989166,560.035706 363.346680,561.699280 
	C364.927887,563.636963 366.951965,562.681824 368.859955,562.047791 
	C372.334137,560.893372 374.920135,558.658325 376.920807,555.648315 
	C378.870209,552.715332 381.378693,551.672546 384.561920,553.709167 
	C387.660919,555.691895 386.071350,557.927124 384.812775,560.152588 
	C382.906097,563.523926 383.291809,567.249146 383.271881,570.900513 
	C383.256134,573.787354 385.332855,573.879944 387.424042,573.953796 
	C394.080780,574.188965 400.735474,574.512329 407.394073,574.649048 
	C410.734314,574.717651 413.677734,575.476929 415.754089,578.249939 
	C416.414703,579.132263 416.251984,580.264587 415.399994,580.965454 
	C412.727203,583.164124 409.803497,582.237976 406.841187,581.617798 
	C400.351440,580.259094 393.956635,578.515503 387.121277,580.032288 
	C383.195129,580.903564 382.016815,582.692261 382.069427,586.512634 
	C382.225189,597.824585 382.691589,609.172546 380.266296,620.358276 
	C379.236145,625.109375 377.655243,629.667786 375.378052,633.946960 
	C370.801697,642.546631 363.223083,646.345154 353.339844,645.153320 
	C345.437531,644.200439 339.336761,639.179932 337.334686,631.371765 
	C335.720215,625.075256 336.062256,618.609497 339.060272,612.835754 
	C346.711578,598.100586 354.912994,583.706360 371.649658,577.241516 
	C375.641388,575.699585 375.485107,572.395691 374.727692,569.316284 
	C373.932648,566.083618 371.254028,567.848999 369.286102,568.045959 
	C363.920166,568.583069 358.533051,569.406372 355.086273,563.609863 
	C354.084381,561.924927 352.250671,562.140137 350.557037,562.562317 
	C346.522827,563.567871 342.495972,564.604248 338.451965,565.568726 
	C336.031586,566.145996 334.408722,567.507935 333.126770,569.684998 
	C331.187805,572.977783 329.058746,576.188965 326.713715,579.203979 
	C324.312042,582.291809 321.062805,583.935120 317.035889,582.811401 
	C313.075348,581.706177 311.018738,578.966125 310.554901,574.859863 
	C309.849365,568.613342 308.994385,562.383606 308.172089,555.904114 
	C304.329651,556.001038 301.348206,558.027527 298.057831,558.968567 
	C295.866180,559.595337 293.143311,560.744202 292.091003,557.629578 
	C291.126343,554.774353 293.778351,554.351013 295.749878,553.360657 
	C300.056976,551.196960 304.187622,548.681091 308.381897,546.294250 
	C310.410004,545.140198 311.330688,543.328613 311.807434,541.064087 
	C314.732391,527.171021 321.615997,514.924072 328.158630,502.567352 
	C329.632385,499.783875 331.787842,495.688507 335.545319,497.701904 
	C338.988251,499.546692 337.530579,503.694427 336.153351,506.746613 
	C332.661774,514.484680 328.317535,521.821106 325.399689,529.839966 
	C324.250366,532.998596 323.876099,535.109192 327.760834,536.992310 
	C332.963043,539.514038 334.869415,544.593140 335.355988,550.225159 
	C336.263306,560.727417 337.060913,561.203613 346.930450,557.329651 
	C349.422638,556.351440 351.775482,555.096252 353.871643,552.822205 
M353.112762,639.303894 
	C361.183197,639.667297 368.728302,633.561829 371.497070,623.967163 
	C373.762482,616.116943 374.521362,607.995239 374.696320,599.844849 
	C374.808136,594.634827 375.597809,589.366699 374.127441,583.911743 
	C372.703857,584.375610 371.480896,584.505371 370.574432,585.109802 
	C357.304657,593.958374 348.609924,606.470703 344.594330,621.554199 
	C342.033142,631.174500 345.541779,636.621948 353.112762,639.303894 
M319.447968,548.340210 
	C318.394928,557.634766 319.315125,559.238220 326.118622,559.964111 
	C328.408112,555.114563 326.678925,547.228394 322.400421,543.092651 
	C320.486053,543.974854 320.458191,546.018494 319.447968,548.340210 
M322.515839,572.989868 
	C323.446686,571.289673 324.666809,569.705200 324.748749,567.262024 
	C322.217407,566.096558 319.853363,564.367371 316.550659,564.200439 
	C316.040039,568.503479 317.226898,572.254944 317.904327,576.025574 
	C320.308929,575.909607 321.177338,574.669250 322.515839,572.989868 
z"/>
<path fill="#000000" opacity="1.000000" stroke="none" 
	d="
M542.000122,672.623108 
	C550.498718,672.631470 558.497559,672.608337 566.495728,672.672485 
	C568.410278,672.687866 570.970276,672.286194 570.925537,675.288635 
	C570.877075,678.531311 568.135010,678.074890 566.070190,678.076294 
	C530.742981,678.099731 495.415802,678.088684 460.088654,678.043335 
	C458.004883,678.040649 455.209229,678.402344 455.148590,675.280762 
	C455.082916,671.901062 458.034729,672.680176 460.014160,672.676025 
	C487.176056,672.619324 514.338074,672.629700 542.000122,672.623108 
z"/>
<path fill="#000000" opacity="1.000000" stroke="none" 
	d="
M735.188477,732.454834 
	C735.448975,739.247864 735.448975,745.729492 735.448975,752.801758 
	C726.429993,755.301514 725.885681,744.699646 719.509399,742.921387 
	C719.509399,745.812683 719.509399,749.154053 719.509399,752.242737 
	C717.121155,753.731934 715.196106,753.295227 712.923096,752.789062 
	C712.923096,746.083679 712.923096,739.350830 712.923096,732.295654 
	C715.015381,731.855103 716.957825,731.306580 717.290955,728.362061 
	C717.530701,726.242859 719.691406,725.075256 721.883972,725.418701 
	C724.789673,725.873962 727.633179,726.597961 730.465454,724.706482 
	C730.946777,730.603333 730.399536,730.877930 720.858826,730.184326 
	C721.434509,734.995850 725.192383,737.395325 728.671204,741.416626 
	C729.056702,737.767090 729.340149,735.083435 729.626526,732.371582 
	C731.371338,731.373169 733.141785,731.600098 735.188477,732.454834 
z"/>
<path fill="#000000" opacity="1.000000" stroke="none" 
	d="
M544.159119,753.232300 
	C540.108948,751.842529 538.931335,747.960815 536.146851,745.679871 
	C534.782104,744.561890 533.805481,742.970154 531.777466,740.546021 
	C531.777466,745.468323 531.777466,748.859985 531.777466,752.137756 
	C526.008850,754.133057 525.069519,753.520691 525.024353,747.921570 
	C524.993530,744.095215 524.943726,740.264648 525.092896,736.443359 
	C525.157349,734.790527 524.280823,732.284180 526.910278,731.956482 
	C529.388123,731.647766 532.241394,730.634094 534.262634,733.355591 
	C536.231018,736.005859 538.030457,738.817871 540.966492,740.812927 
	C543.001160,738.115112 540.132935,734.205261 543.126221,732.129578 
	C544.407166,731.241333 546.313477,731.414856 548.344666,732.672363 
	C548.344666,738.530029 548.284790,744.651550 548.370117,750.770996 
	C548.412537,753.815247 546.254944,753.090759 544.159119,753.232300 
z"/>
<path fill="#000000" opacity="1.000000" stroke="none" 
	d="
M674.123413,743.717529 
	C670.068909,747.565735 676.053040,749.212036 675.348267,752.630188 
	C671.851440,753.759888 668.714844,754.156738 666.854858,749.506042 
	C666.149902,747.743469 664.956604,745.946777 662.557007,745.640015 
	C659.953064,747.426147 662.182922,750.402771 660.875732,752.487244 
	C654.535217,754.116455 653.971069,753.708862 653.943115,747.342590 
	C653.926270,743.513000 654.075439,739.678406 653.920959,735.855286 
	C653.802063,732.912537 654.827820,731.547119 657.906616,731.669800 
	C661.563904,731.815735 665.238403,731.562500 668.892822,731.740967 
	C676.084839,732.092224 678.413879,737.158020 674.123413,743.717529 
M665.287598,737.329224 
	C663.850891,737.589050 661.794189,736.629761 661.456177,739.593811 
	C664.119080,740.563477 666.662659,741.585083 668.965515,738.903259 
	C668.377502,737.089661 667.082703,737.443481 665.287598,737.329224 
z"/>
<path fill="#000000" opacity="1.000000" stroke="none" 
	d="
M311.823669,736.417358 
	C307.770050,738.376526 303.541412,736.526245 299.377380,737.792297 
	C301.197388,740.919189 307.357758,736.200684 307.135071,742.127869 
	C306.925049,747.716431 301.400513,743.332031 299.178467,746.353088 
	C302.110199,747.670349 305.081665,746.811646 307.894379,747.027771 
	C309.979950,747.187927 311.959045,747.093750 312.004486,750.050964 
	C312.047974,752.878113 310.367340,753.295776 308.111023,753.267334 
	C303.283875,753.206665 298.455688,753.231384 293.628601,753.167297 
	C293.004883,753.159058 292.385345,752.831604 291.616943,752.609558 
	C291.616943,745.872864 291.616943,739.254944 291.616943,732.082458 
	C298.113556,732.082458 304.662933,732.082458 311.520447,732.082458 
	C312.436188,733.060120 312.009857,734.587952 311.823669,736.417358 
z"/>
<path fill="#000000" opacity="1.000000" stroke="none" 
	d="
M769.576965,750.704102 
	C764.524658,753.814209 759.556580,754.158630 754.526611,751.965393 
	C749.003784,749.557068 746.714233,743.156677 749.405396,737.784912 
	C751.877991,732.849426 756.241089,731.456177 761.431396,731.618286 
	C766.220398,731.767883 770.450317,733.110901 772.417603,737.800964 
	C774.345032,742.396118 773.952087,746.888245 769.576965,750.704102 
M766.509583,743.205933 
	C766.605530,739.501892 764.518372,737.676270 761.097168,737.473633 
	C758.379150,737.312683 756.208435,738.631104 755.496948,741.397278 
	C754.820007,744.029053 756.139893,745.926575 758.515015,746.969543 
	C761.785645,748.405701 764.277161,747.275574 766.076599,744.330200 
	C766.162476,744.189636 766.224487,744.034546 766.509583,743.205933 
z"/>
<path fill="#000000" opacity="1.000000" stroke="none" 
	d="
M506.615723,732.903809 
	C512.320251,736.991455 513.939392,742.319214 511.320282,747.315918 
	C508.523621,752.651367 500.699066,754.906372 494.142090,752.266724 
	C488.952423,750.177490 486.368500,745.164978 487.675018,739.721130 
	C488.813721,734.976501 492.864746,731.914185 498.402374,731.686584 
	C501.067993,731.577087 503.743469,731.535339 506.615723,732.903809 
M494.507874,741.047485 
	C493.782349,744.773193 495.668793,746.817444 499.053467,747.472900 
	C501.789734,748.002747 503.949188,746.725464 505.142242,744.190186 
	C506.229767,741.879150 505.473114,739.927490 503.416382,738.581482 
	C500.514099,736.682129 497.776001,736.942505 495.382782,739.566345 
	C495.160553,739.809998 494.991394,740.101929 494.507874,741.047485 
z"/>
<path fill="#000000" opacity="1.000000" stroke="none" 
	d="
M397.448303,737.698914 
	C402.115295,731.456055 409.917755,729.755310 416.194489,733.312378 
	C422.053192,736.632568 423.298431,744.731323 418.701355,749.616882 
	C414.875031,753.683411 406.828186,754.541809 401.538574,751.447815 
	C396.861176,748.711975 395.517090,744.489624 397.448303,737.698914 
M414.044464,740.419312 
	C413.420166,739.172485 412.439880,738.306519 411.141205,737.837341 
	C408.287872,736.806519 405.811890,737.478210 404.123840,739.954102 
	C402.598999,742.190552 403.078583,744.451965 405.141296,746.155457 
	C407.469208,748.078003 410.024994,748.144592 412.460938,746.326721 
	C414.191956,745.034973 414.970154,743.277161 414.044464,740.419312 
z"/>
<path fill="#000000" opacity="1.000000" stroke="none" 
	d="
M261.140533,745.898071 
	C259.828918,748.196350 260.808411,750.428833 260.296631,752.549133 
	C258.189117,753.638062 256.113800,753.394897 253.721008,752.741028 
	C253.721008,746.034180 253.721008,739.311890 253.721008,732.469604 
	C255.675995,731.225098 257.758240,731.660217 260.238739,732.157349 
	C260.340454,735.592285 259.749878,739.397766 265.582550,738.947876 
	C270.855103,738.541260 269.254883,735.015198 269.471466,732.147156 
	C271.811554,731.489258 273.874054,731.632935 276.167633,732.111511 
	C276.167633,739.099854 276.167633,745.829529 276.167633,752.684937 
	C273.980713,753.614380 271.910889,753.242371 269.862305,752.973755 
	C269.078156,744.393494 269.078156,744.393494 261.140533,745.898071 
z"/>
<path fill="#000000" opacity="1.000000" stroke="none" 
	d="
M360.682068,734.844482 
	C361.446594,729.516174 364.953857,732.737000 367.646729,731.283813 
	C367.424255,735.596436 366.771240,739.090820 372.361237,738.995850 
	C377.655396,738.905823 376.440369,735.441833 376.771484,732.515930 
	C378.831390,731.178467 380.909698,731.821228 383.232605,731.993225 
	C383.232605,738.990356 383.232605,745.726013 383.232605,752.587341 
	C381.233856,753.628235 379.175629,753.385315 376.747345,752.658875 
	C376.632965,748.794556 377.599945,744.071899 370.781708,745.031067 
	C365.140350,745.824646 368.449890,749.823914 367.337463,752.595337 
	C365.466766,753.745239 363.287354,753.414246 360.685089,752.567505 
	C360.685089,746.810730 360.685089,741.037903 360.682068,734.844482 
z"/>
<path fill="#000000" opacity="1.000000" stroke="none" 
	d="
M343.960754,732.441162 
	C350.479614,735.248901 343.452637,736.935242 345.250580,740.170959 
	C341.166962,738.338867 338.433624,737.840149 335.614532,738.121582 
	C332.978882,738.384827 330.432373,739.104675 330.473602,742.338684 
	C330.516479,745.702087 333.024048,746.675720 335.934845,746.870605 
	C338.795197,747.062073 341.480164,746.438477 343.730865,744.706909 
	C345.605011,746.511353 347.041412,748.065247 347.294891,750.636292 
	C342.275238,753.248901 337.074158,754.141235 331.556610,752.538147 
	C326.121674,750.959167 322.599396,746.505493 322.963684,741.778748 
	C323.338440,736.916077 327.270111,732.728882 332.708252,731.905579 
	C336.305634,731.360840 339.984375,731.281555 343.960754,732.441162 
z"/>
<path fill="#000000" opacity="1.000000" stroke="none" 
	d="
M601.012939,745.014832 
	C603.510925,746.121155 604.490417,748.129578 605.246094,750.596863 
	C600.287415,753.213806 595.177734,754.052734 589.845947,752.743408 
	C584.051575,751.320496 580.457275,746.831116 580.770264,741.815430 
	C581.079956,736.852722 585.308228,732.483215 590.966003,731.834839 
	C595.401123,731.326538 599.904846,731.277222 604.141968,733.384277 
	C604.760986,735.903503 602.920410,737.361755 601.743713,739.431824 
	C598.795410,738.441406 595.783813,737.622314 592.619934,738.156067 
	C590.033813,738.592468 588.209167,739.786438 588.344666,742.683655 
	C588.466431,745.287659 590.213684,746.406738 592.580139,746.766113 
	C595.486084,747.207458 598.193115,746.633789 601.012939,745.014832 
z"/>
<path fill="#000000" opacity="1.000000" stroke="none" 
	d="
M460.121979,739.996338 
	C458.259277,744.871704 460.854645,746.396362 464.721100,746.855408 
	C467.580750,747.194946 470.258453,746.354492 472.568817,744.878174 
	C474.353058,746.534790 475.577301,748.059387 476.348907,750.563599 
	C470.846680,753.360474 465.216888,754.341614 459.288391,752.215088 
	C454.580109,750.526245 451.807983,746.960815 451.926971,741.997986 
	C452.041809,737.207214 455.008820,733.947510 459.560242,732.542358 
	C464.943176,730.880493 470.302124,731.213074 475.594788,733.399536 
	C475.627197,736.023315 474.108887,737.561890 472.969513,739.365051 
	C468.548828,738.297546 464.348969,736.590210 460.121979,739.996338 
z"/>
<path fill="#000000" opacity="1.000000" stroke="none" 
	d="
M618.303589,747.250977 
	C619.783264,743.329895 621.300354,739.810974 622.397705,736.165649 
	C623.388550,732.874084 625.013062,731.541504 628.694092,731.528809 
	C632.531555,731.515564 633.841614,733.305725 634.943909,736.412842 
	C636.816833,741.692566 639.010376,746.858582 641.229919,752.479492 
	C637.532837,753.401001 634.631714,754.542725 632.643860,750.190918 
	C631.634949,747.982300 624.919556,747.959290 623.962158,750.188843 
	C622.399719,753.827332 620.011902,753.479431 617.188843,752.863892 
	C616.055237,750.690186 617.845032,749.289978 618.303589,747.250977 
M628.394958,739.278503 
	C626.604248,740.290466 625.903503,742.054810 626.769287,743.673950 
	C627.553528,745.140808 629.166870,744.931641 630.353394,743.601257 
	C630.388245,742.016357 629.664124,740.782532 628.394958,739.278503 
z"/>
<path fill="#000000" opacity="1.000000" stroke="none" 
	d="
M690.396729,743.352295 
	C690.435425,739.481445 690.435425,736.003784 690.435425,732.343689 
	C692.468323,731.254028 694.568359,731.828857 697.003601,731.878113 
	C697.003601,738.863037 697.003601,745.611145 697.003601,752.646606 
	C695.034363,753.868286 692.827209,753.183411 690.358093,752.895264 
	C690.358093,749.636902 690.358093,746.691162 690.396729,743.352295 
z"/>
</svg>